<svg xmlns="http://www.w3.org/2000/svg" width="1200" height="630" viewBox="0 0 1200 630" role="img" aria-label="Valtia · Cripto">
  <defs>
    <linearGradient id="bg" x1="0" y1="0" x2="1" y2="1"><stop offset="0" stop-color="#0D1B2A"/><stop offset="1" stop-color="#152336"/></linearGradient>
    <linearGradient id="area" x1="0" y1="0" x2="0" y2="1"><stop offset="0" stop-color="#D4AF6E" stop-opacity=".30"/><stop offset="1" stop-color="#D4AF6E" stop-opacity="0"/></linearGradient>
    <radialGradient id="glow" cx="0.3" cy="0.3" r="0.8"><stop offset="0" stop-color="#D4AF6E" stop-opacity=".13"/><stop offset="1" stop-color="#D4AF6E" stop-opacity="0"/></radialGradient>
    <linearGradient id="velo" x1="0" y1="0" x2="1" y2="0"><stop offset="0" stop-color="#0D1B2A" stop-opacity=".95"/><stop offset=".55" stop-color="#0D1B2A" stop-opacity=".55"/><stop offset=".8" stop-color="#0D1B2A" stop-opacity="0"/></linearGradient>
  </defs>
  <rect width="1200" height="630" fill="url(#bg)"/>
  <rect width="1200" height="630" fill="url(#glow)"/>
  <line x1="0" y1="90" x2="1200" y2="90" stroke="rgba(245,242,236,.04)"/><line x1="0" y1="180" x2="1200" y2="180" stroke="rgba(245,242,236,.04)"/><line x1="0" y1="270" x2="1200" y2="270" stroke="rgba(245,242,236,.04)"/><line x1="0" y1="360" x2="1200" y2="360" stroke="rgba(245,242,236,.04)"/><line x1="0" y1="450" x2="1200" y2="450" stroke="rgba(245,242,236,.04)"/><line x1="0" y1="540" x2="1200" y2="540" stroke="rgba(245,242,236,.04)"/>
  <circle cx="1019" cy="517" r="86" fill="none" stroke="#D4AF6E" stroke-width="2.5" opacity=".38"/><circle cx="1019" cy="517" r="62" fill="none" stroke="#D4AF6E" stroke-width="1.2" stroke-dasharray="4 7" opacity=".32"/><circle cx="885" cy="292" r="70" fill="none" stroke="#D4AF6E" stroke-width="2.5" opacity=".38"/><circle cx="885" cy="292" r="50" fill="none" stroke="#D4AF6E" stroke-width="1.2" stroke-dasharray="4 7" opacity=".32"/><circle cx="746" cy="498" r="57" fill="none" stroke="#D4AF6E" stroke-width="2.5" opacity=".38"/><circle cx="746" cy="498" r="41" fill="none" stroke="#D4AF6E" stroke-width="1.2" stroke-dasharray="4 7" opacity=".32"/><circle cx="1131" cy="407" r="56" fill="none" stroke="#D4AF6E" stroke-width="2.5" opacity=".38"/><circle cx="1131" cy="407" r="40" fill="none" stroke="#D4AF6E" stroke-width="1.2" stroke-dasharray="4 7" opacity=".32"/><circle cx="915" cy="358" r="82" fill="none" stroke="#D4AF6E" stroke-width="2.5" opacity=".38"/><circle cx="915" cy="358" r="59" fill="none" stroke="#D4AF6E" stroke-width="1.2" stroke-dasharray="4 7" opacity=".32"/><circle cx="786" cy="299" r="85" fill="none" stroke="#D4AF6E" stroke-width="2.5" opacity=".38"/><circle cx="786" cy="299" r="61" fill="none" stroke="#D4AF6E" stroke-width="1.2" stroke-dasharray="4 7" opacity=".32"/><circle cx="1073" cy="293" r="57" fill="none" stroke="#D4AF6E" stroke-width="2.5" opacity=".38"/><circle cx="1073" cy="293" r="41" fill="none" stroke="#D4AF6E" stroke-width="1.2" stroke-dasharray="4 7" opacity=".32"/><path d="M 0,560 Q 0,560 12,557 Q 25,554 38,543 Q 50,533 62,534 Q 75,536 88,526 Q 100,516 112,520 Q 125,524 138,516 Q 150,508 162,511 Q 175,514 188,511 Q 200,508 212,507 Q 225,507 238,501 Q 250,494 262,487 Q 275,480 288,484 Q 300,488 312,486 Q 325,483 338,477 Q 350,470 362,460 Q 375,450 388,448 Q 400,447 412,445 Q 425,443 438,444 Q 450,444 462,434 Q 475,424 488,419 Q 500,413 512,416 Q 525,420 538,418 Q 550,416 562,422 Q 575,428 588,420 Q 600,413 612,418 Q 625,424 638,428 Q 650,431 662,426 Q 675,422 688,421 Q 700,421 712,418 Q 725,414 738,412 Q 750,409 762,402 Q 775,394 788,390 Q 800,386 812,390 Q 825,393 838,394 Q 850,395 862,389 Q 875,384 888,387 Q 900,390 912,384 Q 925,378 938,372 Q 950,366 962,362 Q 975,358 988,350 Q 1000,343 1012,339 Q 1025,335 1038,328 Q 1050,321 1062,322 Q 1075,324 1088,326 Q 1100,328 1112,333 Q 1125,338 1138,343 Q 1150,348 1162,344 Q 1175,339 1188,342 L 1200,345" fill="none" stroke="#D4AF6E" stroke-width="2" opacity="0.6"/>
  <rect width="1200" height="630" fill="url(#velo)"/>
  <g transform="translate(200,150)">
    <circle cx="7" cy="-6" r="7" fill="#B8975A"/>
    <text x="26" y="0" font-family="Georgia, 'Times New Roman', serif" font-size="26" letter-spacing="6" fill="#F5F2EC">VALTIA</text>
    <text x="26" y="24" font-family="Helvetica, Arial, sans-serif" font-size="12" letter-spacing="4" fill="rgba(245,242,236,.45)">ANALYTICS</text>
  </g>
  <text x="200" y="318" font-family="Helvetica, Arial, sans-serif" font-size="20" font-weight="700" letter-spacing="5" fill="#D4AF6E">NOTICIAS</text>
  <text x="196" y="392" font-family="Georgia, 'Times New Roman', serif" font-size="64" fill="#F5F2EC">Cripto</text>
  <text x="200" y="436" font-family="Helvetica, Arial, sans-serif" font-size="21" fill="rgba(245,242,236,.6)">Redacción Valtia</text>
  <line x1="200" y1="500" x2="300" y2="500" stroke="#B8975A" stroke-width="2"/>
  <text x="1000" y="582" text-anchor="end" font-family="Helvetica, Arial, sans-serif" font-size="16" letter-spacing="1" fill="rgba(245,242,236,.4)">valtia.tech</text>
</svg>
