<svg xmlns="http://www.w3.org/2000/svg" width="1200" height="630" viewBox="0 0 1200 630" role="img" aria-label="Valtia · Mercado local">
  <defs>
    <linearGradient id="bg" x1="0" y1="0" x2="1" y2="1"><stop offset="0" stop-color="#0D1B2A"/><stop offset="1" stop-color="#152336"/></linearGradient>
    <linearGradient id="area" x1="0" y1="0" x2="0" y2="1"><stop offset="0" stop-color="#D4AF6E" stop-opacity=".30"/><stop offset="1" stop-color="#D4AF6E" stop-opacity="0"/></linearGradient>
    <radialGradient id="glow" cx="0.3" cy="0.3" r="0.8"><stop offset="0" stop-color="#D4AF6E" stop-opacity=".13"/><stop offset="1" stop-color="#D4AF6E" stop-opacity="0"/></radialGradient>
    <linearGradient id="velo" x1="0" y1="0" x2="1" y2="0"><stop offset="0" stop-color="#0D1B2A" stop-opacity=".95"/><stop offset=".55" stop-color="#0D1B2A" stop-opacity=".55"/><stop offset=".8" stop-color="#0D1B2A" stop-opacity="0"/></linearGradient>
  </defs>
  <rect width="1200" height="630" fill="url(#bg)"/>
  <rect width="1200" height="630" fill="url(#glow)"/>
  <line x1="0" y1="90" x2="1200" y2="90" stroke="rgba(245,242,236,.04)"/><line x1="0" y1="180" x2="1200" y2="180" stroke="rgba(245,242,236,.04)"/><line x1="0" y1="270" x2="1200" y2="270" stroke="rgba(245,242,236,.04)"/><line x1="0" y1="360" x2="1200" y2="360" stroke="rgba(245,242,236,.04)"/><line x1="0" y1="450" x2="1200" y2="450" stroke="rgba(245,242,236,.04)"/><line x1="0" y1="540" x2="1200" y2="540" stroke="rgba(245,242,236,.04)"/>
  <line x1="15" y1="422" x2="15" y2="459" stroke="#4FA37A" stroke-width="2" opacity=".55"/><rect x="6" y="442" width="18" height="8" fill="#4FA37A" opacity=".6"/><line x1="45" y1="431" x2="45" y2="463" stroke="#C8615A" stroke-width="2" opacity=".55"/><rect x="36" y="442" width="18" height="7" fill="#C8615A" opacity=".6"/><line x1="75" y1="437" x2="75" y2="458" stroke="#C8615A" stroke-width="2" opacity=".55"/><rect x="66" y="448" width="18" height="5" fill="#C8615A" opacity=".6"/><line x1="105" y1="439" x2="105" y2="466" stroke="#4FA37A" stroke-width="2" opacity=".55"/><rect x="96" y="446" width="18" height="8" fill="#4FA37A" opacity=".6"/><line x1="135" y1="431" x2="135" y2="446" stroke="#4FA37A" stroke-width="2" opacity=".55"/><rect x="126" y="431" width="18" height="15" fill="#4FA37A" opacity=".6"/><line x1="165" y1="391" x2="165" y2="441" stroke="#4FA37A" stroke-width="2" opacity=".55"/><rect x="156" y="413" width="18" height="18" fill="#4FA37A" opacity=".6"/><line x1="195" y1="411" x2="195" y2="451" stroke="#C8615A" stroke-width="2" opacity=".55"/><rect x="186" y="413" width="18" height="17" fill="#C8615A" opacity=".6"/><line x1="225" y1="411" x2="225" y2="447" stroke="#C8615A" stroke-width="2" opacity=".55"/><rect x="216" y="429" width="18" height="3" fill="#C8615A" opacity=".6"/><line x1="255" y1="418" x2="255" y2="443" stroke="#C8615A" stroke-width="2" opacity=".55"/><rect x="246" y="431" width="18" height="8" fill="#C8615A" opacity=".6"/><line x1="285" y1="423" x2="285" y2="450" stroke="#4FA37A" stroke-width="2" opacity=".55"/><rect x="276" y="427" width="18" height="13" fill="#4FA37A" opacity=".6"/><line x1="315" y1="414" x2="315" y2="448" stroke="#4FA37A" stroke-width="2" opacity=".55"/><rect x="306" y="415" width="18" height="12" fill="#4FA37A" opacity=".6"/><line x1="345" y1="382" x2="345" y2="432" stroke="#4FA37A" stroke-width="2" opacity=".55"/><rect x="336" y="402" width="18" height="12" fill="#4FA37A" opacity=".6"/><line x1="375" y1="396" x2="375" y2="428" stroke="#C8615A" stroke-width="2" opacity=".55"/><rect x="366" y="402" width="18" height="12" fill="#C8615A" opacity=".6"/><line x1="405" y1="411" x2="405" y2="433" stroke="#C8615A" stroke-width="2" opacity=".55"/><rect x="396" y="414" width="18" height="18" fill="#C8615A" opacity=".6"/><line x1="435" y1="415" x2="435" y2="434" stroke="#4FA37A" stroke-width="2" opacity=".55"/><rect x="426" y="428" width="18" height="4" fill="#4FA37A" opacity=".6"/><line x1="465" y1="396" x2="465" y2="437" stroke="#4FA37A" stroke-width="2" opacity=".55"/><rect x="456" y="408" width="18" height="21" fill="#4FA37A" opacity=".6"/><line x1="495" y1="392" x2="495" y2="421" stroke="#4FA37A" stroke-width="2" opacity=".55"/><rect x="486" y="398" width="18" height="10" fill="#4FA37A" opacity=".6"/><line x1="525" y1="376" x2="525" y2="414" stroke="#C8615A" stroke-width="2" opacity=".55"/><rect x="516" y="398" width="18" height="14" fill="#C8615A" opacity=".6"/><line x1="555" y1="400" x2="555" y2="420" stroke="#C8615A" stroke-width="2" opacity=".55"/><rect x="546" y="411" width="18" height="5" fill="#C8615A" opacity=".6"/><line x1="585" y1="404" x2="585" y2="437" stroke="#C8615A" stroke-width="2" opacity=".55"/><rect x="576" y="416" width="18" height="3" fill="#C8615A" opacity=".6"/><line x1="615" y1="417" x2="615" y2="423" stroke="#C8615A" stroke-width="2" opacity=".55"/><rect x="606" y="418" width="18" height="3" fill="#C8615A" opacity=".6"/><line x1="645" y1="373" x2="645" y2="429" stroke="#4FA37A" stroke-width="2" opacity=".55"/><rect x="636" y="394" width="18" height="24" fill="#4FA37A" opacity=".6"/><line x1="675" y1="370" x2="675" y2="416" stroke="#4FA37A" stroke-width="2" opacity=".55"/><rect x="666" y="382" width="18" height="12" fill="#4FA37A" opacity=".6"/><line x1="705" y1="347" x2="705" y2="384" stroke="#4FA37A" stroke-width="2" opacity=".55"/><rect x="696" y="369" width="18" height="13" fill="#4FA37A" opacity=".6"/><line x1="735" y1="354" x2="735" y2="387" stroke="#C8615A" stroke-width="2" opacity=".55"/><rect x="726" y="369" width="18" height="14" fill="#C8615A" opacity=".6"/><line x1="765" y1="382" x2="765" y2="402" stroke="#C8615A" stroke-width="2" opacity=".55"/><rect x="756" y="383" width="18" height="8" fill="#C8615A" opacity=".6"/><line x1="795" y1="355" x2="795" y2="406" stroke="#4FA37A" stroke-width="2" opacity=".55"/><rect x="786" y="374" width="18" height="17" fill="#4FA37A" opacity=".6"/><line x1="825" y1="355" x2="825" y2="374" stroke="#4FA37A" stroke-width="2" opacity=".55"/><rect x="816" y="363" width="18" height="11" fill="#4FA37A" opacity=".6"/><line x1="855" y1="355" x2="855" y2="368" stroke="#C8615A" stroke-width="2" opacity=".55"/><rect x="846" y="363" width="18" height="3" fill="#C8615A" opacity=".6"/><line x1="885" y1="359" x2="885" y2="397" stroke="#C8615A" stroke-width="2" opacity=".55"/><rect x="876" y="366" width="18" height="11" fill="#C8615A" opacity=".6"/><line x1="915" y1="363" x2="915" y2="415" stroke="#C8615A" stroke-width="2" opacity=".55"/><rect x="906" y="377" width="18" height="21" fill="#C8615A" opacity=".6"/><line x1="945" y1="390" x2="945" y2="420" stroke="#C8615A" stroke-width="2" opacity=".55"/><rect x="936" y="398" width="18" height="5" fill="#C8615A" opacity=".6"/><line x1="975" y1="387" x2="975" y2="428" stroke="#C8615A" stroke-width="2" opacity=".55"/><rect x="966" y="403" width="18" height="18" fill="#C8615A" opacity=".6"/><line x1="1005" y1="402" x2="1005" y2="424" stroke="#4FA37A" stroke-width="2" opacity=".55"/><rect x="996" y="416" width="18" height="6" fill="#4FA37A" opacity=".6"/><line x1="1035" y1="403" x2="1035" y2="424" stroke="#C8615A" stroke-width="2" opacity=".55"/><rect x="1026" y="416" width="18" height="8" fill="#C8615A" opacity=".6"/><line x1="1065" y1="395" x2="1065" y2="435" stroke="#4FA37A" stroke-width="2" opacity=".55"/><rect x="1056" y="409" width="18" height="15" fill="#4FA37A" opacity=".6"/><line x1="1095" y1="406" x2="1095" y2="412" stroke="#C8615A" stroke-width="2" opacity=".55"/><rect x="1086" y="409" width="18" height="3" fill="#C8615A" opacity=".6"/><line x1="1125" y1="395" x2="1125" y2="435" stroke="#C8615A" stroke-width="2" opacity=".55"/><rect x="1116" y="411" width="18" height="3" fill="#C8615A" opacity=".6"/><line x1="1155" y1="399" x2="1155" y2="414" stroke="#4FA37A" stroke-width="2" opacity=".55"/><rect x="1146" y="406" width="18" height="8" fill="#4FA37A" opacity=".6"/><line x1="1185" y1="379" x2="1185" y2="426" stroke="#4FA37A" stroke-width="2" opacity=".55"/><rect x="1176" y="388" width="18" height="18" fill="#4FA37A" opacity=".6"/>
  <rect width="1200" height="630" fill="url(#velo)"/>
  <g transform="translate(200,150)">
    <circle cx="7" cy="-6" r="7" fill="#B8975A"/>
    <text x="26" y="0" font-family="Georgia, 'Times New Roman', serif" font-size="26" letter-spacing="6" fill="#F5F2EC">VALTIA</text>
    <text x="26" y="24" font-family="Helvetica, Arial, sans-serif" font-size="12" letter-spacing="4" fill="rgba(245,242,236,.45)">ANALYTICS</text>
  </g>
  <text x="200" y="318" font-family="Helvetica, Arial, sans-serif" font-size="20" font-weight="700" letter-spacing="5" fill="#D4AF6E">NOTICIAS</text>
  <text x="196" y="392" font-family="Georgia, 'Times New Roman', serif" font-size="64" fill="#F5F2EC">Mercado local</text>
  <text x="200" y="436" font-family="Helvetica, Arial, sans-serif" font-size="21" fill="rgba(245,242,236,.6)">Redacción Valtia</text>
  <line x1="200" y1="500" x2="300" y2="500" stroke="#B8975A" stroke-width="2"/>
  <text x="1000" y="582" text-anchor="end" font-family="Helvetica, Arial, sans-serif" font-size="16" letter-spacing="1" fill="rgba(245,242,236,.4)">valtia.tech</text>
</svg>
