<svg xmlns="http://www.w3.org/2000/svg" width="1200" height="630" viewBox="0 0 1200 630" role="img">
  <defs>
    <linearGradient id="bg" x1="0" y1="0" x2="1" y2="1">
      <stop offset="0" stop-color="#0D1B2A"/><stop offset="1" stop-color="#152336"/>
    </linearGradient>
    <linearGradient id="area" x1="0" y1="0" x2="0" y2="1">
      <stop offset="0" stop-color="#4caf50" stop-opacity=".35"/>
      <stop offset="1" stop-color="#4caf50" stop-opacity="0"/>
    </linearGradient>
    <radialGradient id="glow" cx="0.22" cy="0.28" r="0.8">
      <stop offset="0" stop-color="#4caf50" stop-opacity=".14"/>
      <stop offset="1" stop-color="#4caf50" stop-opacity="0"/>
    </radialGradient>
  </defs>
  <rect width="1200" height="630" fill="url(#bg)"/>
  <rect width="1200" height="630" fill="url(#glow)"/>
  <line x1="0" y1="90" x2="1200" y2="90" stroke="rgba(245,242,236,.04)"/><line x1="0" y1="180" x2="1200" y2="180" stroke="rgba(245,242,236,.04)"/><line x1="0" y1="270" x2="1200" y2="270" stroke="rgba(245,242,236,.04)"/><line x1="0" y1="360" x2="1200" y2="360" stroke="rgba(245,242,236,.04)"/><line x1="0" y1="450" x2="1200" y2="450" stroke="rgba(245,242,236,.04)"/><line x1="0" y1="540" x2="1200" y2="540" stroke="rgba(245,242,236,.04)"/>
  <path d="M 0,496 Q 0,496 24,495 Q 48,494 72,497 Q 96,500 120,503 Q 144,505 168,506 Q 192,507 216,503 Q 240,498 264,493 Q 288,488 312,489 Q 336,489 360,489 Q 384,488 408,488 Q 432,487 456,482 Q 480,477 504,477 Q 528,477 552,478 Q 576,478 600,478 Q 624,477 648,481 Q 672,485 696,483 Q 720,482 744,485 Q 768,488 792,484 Q 816,480 840,480 Q 864,479 888,474 Q 912,469 936,468 Q 960,468 984,470 Q 1008,471 1032,465 Q 1056,460 1080,455 Q 1104,451 1128,454 Q 1152,458 1176,453 L 1200,580 L 0,580 Z" fill="url(#area)"/>
  <path d="M 0,496 Q 0,496 24,495 Q 48,494 72,497 Q 96,500 120,503 Q 144,505 168,506 Q 192,507 216,503 Q 240,498 264,493 Q 288,488 312,489 Q 336,489 360,489 Q 384,488 408,488 Q 432,487 456,482 Q 480,477 504,477 Q 528,477 552,478 Q 576,478 600,478 Q 624,477 648,481 Q 672,485 696,483 Q 720,482 744,485 Q 768,488 792,484 Q 816,480 840,480 Q 864,479 888,474 Q 912,469 936,468 Q 960,468 984,470 Q 1008,471 1032,465 Q 1056,460 1080,455 Q 1104,451 1128,454 Q 1152,458 1176,453" fill="none" stroke="#4caf50" stroke-width="2.5" opacity=".85"/>
  <!-- marca -->
  <g transform="translate(72,74)">
    <circle cx="7" cy="-6" r="7" fill="#B8975A"/>
    <text x="26" y="0" font-family="Georgia, 'Times New Roman', serif" font-size="26" letter-spacing="6" fill="#F5F2EC">VALTIA</text>
    <text x="26" y="24" font-family="Helvetica, Arial, sans-serif" font-size="12" letter-spacing="4" fill="rgba(245,242,236,.45)">ANALYTICS</text>
  </g>
  <!-- kicker -->
  <text x="72" y="188" font-family="Helvetica, Arial, sans-serif" font-size="20" font-weight="700" letter-spacing="4" fill="#D4AF6E">INFORME · SECTOR</text>
  <!-- título -->
  <text x="70" y="256" font-family="Georgia, 'Times New Roman', serif" font-size="72" fill="#F5F2EC">Tecnología</text>
  <text x="72" y="252" font-family="Helvetica, Arial, sans-serif" font-size="22" fill="rgba(245,242,236,.6)">Ciclo de IA e inversión</text>
  
  <!-- fecha / pie -->
  <line x1="72" y1="556" x2="180" y2="556" stroke="#B8975A" stroke-width="2"/>
  <text x="72" y="592" font-family="Helvetica, Arial, sans-serif" font-size="20" letter-spacing="2" fill="rgba(245,242,236,.7)">VALTIA RESEARCH</text>
  <text x="1128" y="592" text-anchor="end" font-family="Helvetica, Arial, sans-serif" font-size="16" letter-spacing="1" fill="rgba(245,242,236,.4)">valtia.tech</text>
</svg>