<svg xmlns="http://www.w3.org/2000/svg" width="1200" height="630" viewBox="0 0 1200 630" role="img">
  <defs>
    <linearGradient id="bg" x1="0" y1="0" x2="1" y2="1">
      <stop offset="0" stop-color="#0D1B2A"/><stop offset="1" stop-color="#152336"/>
    </linearGradient>
    <linearGradient id="area" x1="0" y1="0" x2="0" y2="1">
      <stop offset="0" stop-color="#ef5350" stop-opacity=".35"/>
      <stop offset="1" stop-color="#ef5350" stop-opacity="0"/>
    </linearGradient>
    <radialGradient id="glow" cx="0.22" cy="0.28" r="0.8">
      <stop offset="0" stop-color="#ef5350" stop-opacity=".14"/>
      <stop offset="1" stop-color="#ef5350" stop-opacity="0"/>
    </radialGradient>
  </defs>
  <rect width="1200" height="630" fill="url(#bg)"/>
  <rect width="1200" height="630" fill="url(#glow)"/>
  <line x1="0" y1="90" x2="1200" y2="90" stroke="rgba(245,242,236,.04)"/><line x1="0" y1="180" x2="1200" y2="180" stroke="rgba(245,242,236,.04)"/><line x1="0" y1="270" x2="1200" y2="270" stroke="rgba(245,242,236,.04)"/><line x1="0" y1="360" x2="1200" y2="360" stroke="rgba(245,242,236,.04)"/><line x1="0" y1="450" x2="1200" y2="450" stroke="rgba(245,242,236,.04)"/><line x1="0" y1="540" x2="1200" y2="540" stroke="rgba(245,242,236,.04)"/>
  <path d="M 0,507 Q 0,507 24,509 Q 48,512 72,508 Q 96,505 120,505 Q 144,506 168,510 Q 192,515 216,513 Q 240,511 264,516 Q 288,520 312,524 Q 336,527 360,531 Q 384,536 408,535 Q 432,534 456,532 Q 480,529 504,528 Q 528,527 552,531 Q 576,534 600,531 Q 624,528 648,525 Q 672,522 696,524 Q 720,526 744,528 Q 768,531 792,530 Q 816,529 840,524 Q 864,520 888,517 Q 912,513 936,510 Q 960,507 984,505 Q 1008,503 1032,507 Q 1056,510 1080,509 Q 1104,508 1128,509 Q 1152,511 1176,510 L 1200,580 L 0,580 Z" fill="url(#area)"/>
  <path d="M 0,507 Q 0,507 24,509 Q 48,512 72,508 Q 96,505 120,505 Q 144,506 168,510 Q 192,515 216,513 Q 240,511 264,516 Q 288,520 312,524 Q 336,527 360,531 Q 384,536 408,535 Q 432,534 456,532 Q 480,529 504,528 Q 528,527 552,531 Q 576,534 600,531 Q 624,528 648,525 Q 672,522 696,524 Q 720,526 744,528 Q 768,531 792,530 Q 816,529 840,524 Q 864,520 888,517 Q 912,513 936,510 Q 960,507 984,505 Q 1008,503 1032,507 Q 1056,510 1080,509 Q 1104,508 1128,509 Q 1152,511 1176,510" fill="none" stroke="#ef5350" stroke-width="2.5" opacity=".85"/>
  <!-- marca -->
  <g transform="translate(72,74)">
    <circle cx="7" cy="-6" r="7" fill="#B8975A"/>
    <text x="26" y="0" font-family="Georgia, 'Times New Roman', serif" font-size="26" letter-spacing="6" fill="#F5F2EC">VALTIA</text>
    <text x="26" y="24" font-family="Helvetica, Arial, sans-serif" font-size="12" letter-spacing="4" fill="rgba(245,242,236,.45)">ANALYTICS</text>
  </g>
  <!-- kicker -->
  <text x="72" y="188" font-family="Helvetica, Arial, sans-serif" font-size="20" font-weight="700" letter-spacing="4" fill="#D4AF6E">CRIPTO</text>
  <!-- título -->
  <text x="70" y="256" font-family="Georgia, 'Times New Roman', serif" font-size="72" fill="#F5F2EC">Ethereum</text>
  <text x="72" y="252" font-family="Helvetica, Arial, sans-serif" font-size="22" fill="rgba(245,242,236,.6)">La red crece, el token no captura ese valor</text>
  
  <!-- fecha / pie -->
  <line x1="72" y1="556" x2="180" y2="556" stroke="#B8975A" stroke-width="2"/>
  <text x="72" y="592" font-family="Helvetica, Arial, sans-serif" font-size="20" letter-spacing="2" fill="rgba(245,242,236,.7)">17 DE JULIO, 2026</text>
  <text x="1128" y="592" text-anchor="end" font-family="Helvetica, Arial, sans-serif" font-size="16" letter-spacing="1" fill="rgba(245,242,236,.4)">valtia.tech</text>
</svg>