<svg xmlns="http://www.w3.org/2000/svg" width="1200" height="630" viewBox="0 0 1200 630" role="img">
  <defs>
    <linearGradient id="bg" x1="0" y1="0" x2="1" y2="1">
      <stop offset="0" stop-color="#0D1B2A"/><stop offset="1" stop-color="#152336"/>
    </linearGradient>
    <linearGradient id="area" x1="0" y1="0" x2="0" y2="1">
      <stop offset="0" stop-color="#D4AF6E" stop-opacity=".35"/>
      <stop offset="1" stop-color="#D4AF6E" stop-opacity="0"/>
    </linearGradient>
    <radialGradient id="glow" cx="0.22" cy="0.28" r="0.8">
      <stop offset="0" stop-color="#D4AF6E" stop-opacity=".14"/>
      <stop offset="1" stop-color="#D4AF6E" stop-opacity="0"/>
    </radialGradient>
  </defs>
  <rect width="1200" height="630" fill="url(#bg)"/>
  <rect width="1200" height="630" fill="url(#glow)"/>
  <line x1="0" y1="90" x2="1200" y2="90" stroke="rgba(245,242,236,.04)"/><line x1="0" y1="180" x2="1200" y2="180" stroke="rgba(245,242,236,.04)"/><line x1="0" y1="270" x2="1200" y2="270" stroke="rgba(245,242,236,.04)"/><line x1="0" y1="360" x2="1200" y2="360" stroke="rgba(245,242,236,.04)"/><line x1="0" y1="450" x2="1200" y2="450" stroke="rgba(245,242,236,.04)"/><line x1="0" y1="540" x2="1200" y2="540" stroke="rgba(245,242,236,.04)"/>
  <path d="M 0,503 Q 0,503 24,502 Q 48,500 72,496 Q 96,493 120,493 Q 144,494 168,495 Q 192,496 216,493 Q 240,490 264,490 Q 288,489 312,489 Q 336,490 360,490 Q 384,490 408,491 Q 432,491 456,494 Q 480,496 504,494 Q 528,492 552,487 Q 576,482 600,479 Q 624,477 648,474 Q 672,472 696,473 Q 720,474 744,473 Q 768,473 792,476 Q 816,478 840,475 Q 864,472 888,473 Q 912,474 936,475 Q 960,476 984,471 Q 1008,465 1032,466 Q 1056,467 1080,461 Q 1104,455 1128,453 Q 1152,451 1176,448 L 1200,580 L 0,580 Z" fill="url(#area)"/>
  <path d="M 0,503 Q 0,503 24,502 Q 48,500 72,496 Q 96,493 120,493 Q 144,494 168,495 Q 192,496 216,493 Q 240,490 264,490 Q 288,489 312,489 Q 336,490 360,490 Q 384,490 408,491 Q 432,491 456,494 Q 480,496 504,494 Q 528,492 552,487 Q 576,482 600,479 Q 624,477 648,474 Q 672,472 696,473 Q 720,474 744,473 Q 768,473 792,476 Q 816,478 840,475 Q 864,472 888,473 Q 912,474 936,475 Q 960,476 984,471 Q 1008,465 1032,466 Q 1056,467 1080,461 Q 1104,455 1128,453 Q 1152,451 1176,448" fill="none" stroke="#D4AF6E" stroke-width="2.5" opacity=".85"/>
  <!-- marca -->
  <g transform="translate(72,74)">
    <circle cx="7" cy="-6" r="7" fill="#B8975A"/>
    <text x="26" y="0" font-family="Georgia, 'Times New Roman', serif" font-size="26" letter-spacing="6" fill="#F5F2EC">VALTIA</text>
    <text x="26" y="24" font-family="Helvetica, Arial, sans-serif" font-size="12" letter-spacing="4" fill="rgba(245,242,236,.45)">ANALYTICS</text>
  </g>
  <!-- kicker -->
  <text x="72" y="188" font-family="Helvetica, Arial, sans-serif" font-size="20" font-weight="700" letter-spacing="4" fill="#D4AF6E">WALL STREET · MACRO</text>
  <!-- título -->
  <text x="70" y="256" font-family="Georgia, 'Times New Roman', serif" font-size="72" fill="#F5F2EC">Goldilocks</text>
  <text x="72" y="252" font-family="Helvetica, Arial, sans-serif" font-size="22" fill="rgba(245,242,236,.6)">El IPC de junio reordenó el tablero</text>
  
  <!-- fecha / pie -->
  <line x1="72" y1="556" x2="180" y2="556" stroke="#B8975A" stroke-width="2"/>
  <text x="72" y="592" font-family="Helvetica, Arial, sans-serif" font-size="20" letter-spacing="2" fill="rgba(245,242,236,.7)">17 DE JULIO, 2026</text>
  <text x="1128" y="592" text-anchor="end" font-family="Helvetica, Arial, sans-serif" font-size="16" letter-spacing="1" fill="rgba(245,242,236,.4)">valtia.tech</text>
</svg>